<svg width="320" height="283" viewBox="0 0 320 283" fill="none" xmlns="http://www.w3.org/2000/svg">
<path d="M181.587 274.09C169.432 285.13 150.719 285.13 138.564 273.93L136.805 272.33C52.8368 196.33 -2.02209 146.57 0.0571149 84.4905C1.01675 57.2905 14.9314 31.2105 37.4827 15.8505C79.7065 -12.9495 131.846 0.490467 159.996 33.4505C188.145 0.490467 240.285 -13.1095 282.508 15.8505C305.06 31.2105 318.974 57.2905 319.934 84.4905C322.173 146.57 267.154 196.33 183.187 272.65L181.587 274.09V274.09Z" fill="#FF2C2C"/>
<path d="M81.0928 151.074H70.3698C70.1233 151.074 70 150.919 70 150.61L70.1849 85.436C70.1849 85.1889 70.3081 85.0654 70.5546 85.0654H89.6898C93.1101 85.0654 96.2531 85.8992 99.1187 87.5668C101.984 89.2343 104.265 91.4732 105.959 94.2834C107.685 97.0936 108.548 100.274 108.548 103.826C108.548 106.142 108.193 108.242 107.485 110.125C106.776 112.009 105.944 113.599 104.989 114.896C104.064 116.193 103.217 117.151 102.447 117.768C105.867 121.567 107.577 126.029 107.577 131.155L107.669 150.61C107.669 150.919 107.515 151.074 107.207 151.074H96.4842C96.2377 151.074 96.1144 150.981 96.1144 150.796V131.155C96.1144 128.87 95.3133 126.894 93.711 125.226C92.1087 123.559 90.1366 122.725 87.7948 122.725H81.555L81.4626 150.61C81.4626 150.919 81.3394 151.074 81.0928 151.074ZM89.6898 96.4142H81.555V111.33H89.6898C91.631 111.33 93.3566 110.604 94.8665 109.153C96.4071 107.701 97.1775 105.926 97.1775 103.826C97.1775 101.818 96.4379 100.089 94.9589 98.6376C93.4799 97.1553 91.7235 96.4142 89.6898 96.4142Z" fill="#FF66CC"/>
<path d="M137.969 152C134.611 152 131.514 151.135 128.679 149.406C125.875 147.677 123.61 145.376 121.885 142.504C120.19 139.601 119.343 136.421 119.343 132.962L119.435 102.899C119.435 99.3787 120.282 96.2134 121.977 93.4033C123.641 90.5622 125.89 88.2925 128.725 86.594C131.56 84.8647 134.642 84 137.969 84C141.42 84 144.517 84.8492 147.26 86.5477C150.033 88.2461 152.251 90.5313 153.915 93.4033C155.61 96.2443 156.457 99.4096 156.457 102.899L156.55 132.962C156.55 136.421 155.718 139.586 154.054 142.458C152.359 145.361 150.11 147.677 147.306 149.406C144.502 151.135 141.39 152 137.969 152ZM137.969 140.559C139.88 140.559 141.544 139.787 142.961 138.243C144.379 136.668 145.087 134.907 145.087 132.962L144.995 102.899C144.995 100.799 144.332 99.0236 143.007 97.5722C141.682 96.1208 140.003 95.3951 137.969 95.3951C136.028 95.3951 134.364 96.1054 132.978 97.5259C131.591 98.9464 130.898 100.738 130.898 102.899V132.962C130.898 135.031 131.591 136.822 132.978 138.335C134.364 139.817 136.028 140.559 137.969 140.559Z" fill="#FF66CC"/>
<path d="M185.585 152C182.226 152 179.13 151.135 176.295 149.406C173.491 147.677 171.241 145.376 169.547 142.504C167.883 139.601 167.051 136.421 167.051 132.962V128.608C167.051 128.268 167.205 128.098 167.513 128.098H178.144C178.39 128.098 178.513 128.268 178.513 128.608V132.962C178.513 135.031 179.207 136.822 180.593 138.335C181.98 139.817 183.644 140.559 185.585 140.559C187.557 140.559 189.236 139.802 190.623 138.289C192.01 136.745 192.703 134.969 192.703 132.962C192.703 130.646 191.193 128.623 188.173 126.894C187.68 126.585 187.033 126.214 186.232 125.782C185.462 125.319 184.537 124.794 183.459 124.207C182.38 123.62 181.333 123.049 180.316 122.493C179.299 121.906 178.313 121.351 177.358 120.826C173.907 118.787 171.334 116.24 169.639 113.183C167.975 110.094 167.143 106.636 167.143 102.807C167.143 99.2861 168.006 96.1054 169.731 93.2643C171.457 90.4541 173.706 88.2307 176.48 86.594C179.284 84.9264 182.319 84.0926 185.585 84.0926C188.944 84.0926 192.025 84.9264 194.829 86.594C197.633 88.2925 199.867 90.5468 201.531 93.3569C203.226 96.1671 204.073 99.317 204.073 102.807V110.589C204.073 110.836 203.95 110.959 203.703 110.959H193.073C192.826 110.959 192.703 110.836 192.703 110.589L192.61 102.807C192.61 100.583 191.917 98.7766 190.531 97.3869C189.144 95.9973 187.495 95.3025 185.585 95.3025C183.644 95.3025 181.98 96.0436 180.593 97.5259C179.207 99.0082 178.513 100.768 178.513 102.807C178.513 104.876 178.945 106.605 179.807 107.995C180.701 109.384 182.319 110.712 184.661 111.978C184.907 112.102 185.477 112.411 186.371 112.905C187.264 113.399 188.25 113.955 189.329 114.572C190.438 115.159 191.44 115.699 192.333 116.193C193.227 116.657 193.766 116.935 193.951 117.027C197.094 118.787 199.574 120.949 201.392 123.512C203.241 126.075 204.166 129.225 204.166 132.962C204.166 136.575 203.334 139.817 201.67 142.689C199.975 145.561 197.725 147.831 194.921 149.499C192.117 151.166 189.005 152 185.585 152Z" fill="#FF66CC"/>
<path d="M212.326 150.61L224.066 85.436C224.127 85.1889 224.282 85.0654 224.528 85.0654H238.255C238.502 85.0654 238.656 85.1889 238.718 85.436L249.995 150.61C250.026 150.919 249.903 151.074 249.626 151.074H239.134C238.826 151.074 238.656 150.919 238.625 150.61L237.608 143.662H224.713L223.696 150.61C223.665 150.919 223.511 151.074 223.234 151.074H212.696C212.449 151.074 212.326 150.919 212.326 150.61ZM231.831 106.883L231.276 103.362L230.86 106.883L226.608 133.518H235.713L231.831 106.883Z" fill="#FF66CC"/>
</svg>
