<svg width="320" height="283" viewBox="0 0 320 283" fill="none" xmlns="http://www.w3.org/2000/svg">
<path d="M142.961 138.243C141.544 139.787 139.88 140.559 137.969 140.559C136.028 140.559 134.364 139.817 132.978 138.335C131.591 136.822 130.898 135.031 130.898 132.962V102.899C130.898 100.738 131.591 98.9464 132.978 97.5259C134.364 96.1054 136.028 95.3951 137.969 95.3951C140.003 95.3951 141.682 96.1208 143.007 97.5722C144.332 99.0236 144.995 100.799 144.995 102.899L145.087 132.962C145.087 134.907 144.379 136.668 142.961 138.243Z" fill="#FF2C2C"/>
<path d="M81.5549 96.4142H89.6897C91.7234 96.4142 93.4797 97.1553 94.959 98.6376C96.438 100.089 97.1775 101.818 97.1775 103.826C97.1775 105.926 96.4072 107.701 94.8664 109.153C93.3567 110.604 91.6311 111.33 89.6897 111.33H81.5549V96.4142Z" fill="#FF2C2C"/>
<path d="M231.276 103.362L231.831 106.883L235.713 133.518H226.608L230.86 106.883L231.276 103.362Z" fill="#FF2C2C"/>
<path fill-rule="evenodd" clip-rule="evenodd" d="M138.564 273.93C150.719 285.13 169.432 285.13 181.587 274.09L183.187 272.65L184.154 271.771C267.576 195.948 322.165 146.332 319.934 84.4905C318.974 57.2905 305.06 31.2104 282.509 15.8505C240.285 -13.1095 188.145 0.490475 159.996 33.4505C131.846 0.490475 79.7065 -12.9495 37.4826 15.8505C14.9314 31.2104 1.01683 57.2905 0.0571096 84.4905C-2.02199 146.57 52.8369 196.33 136.804 272.33L138.564 273.93ZM128.679 149.406C131.514 151.135 134.611 152 137.969 152C141.39 152 144.502 151.135 147.306 149.406C150.11 147.677 152.359 145.361 154.054 142.458C155.718 139.586 156.55 136.421 156.55 132.962L156.458 102.899C156.458 99.4096 155.61 96.2443 153.915 93.4033C152.251 90.5313 150.033 88.2461 147.26 86.5477C144.517 84.8492 141.42 84 137.969 84C134.642 84 131.56 84.8647 128.725 86.594C125.89 88.2925 123.641 90.5622 121.977 93.4033C120.282 96.2134 119.435 99.3787 119.435 102.899L119.343 132.962C119.343 136.421 120.19 139.601 121.885 142.504C123.61 145.376 125.875 147.677 128.679 149.406ZM70.3699 151.074H81.0928C81.3393 151.074 81.4626 150.919 81.4626 150.61L81.5549 122.725H87.7947C90.1367 122.725 92.1086 123.559 93.7109 125.226C95.3132 126.894 96.1145 128.87 96.1145 131.155V150.796C96.1145 150.981 96.2375 151.074 96.4841 151.074H107.207C107.515 151.074 107.669 150.919 107.669 150.61L107.577 131.155C107.577 126.029 105.867 121.567 102.447 117.768C103.217 117.151 104.064 116.193 104.989 114.896C105.944 113.599 106.776 112.009 107.485 110.125C108.193 108.242 108.548 106.142 108.548 103.826C108.548 100.274 107.685 97.0935 105.959 94.2834C104.265 91.4732 101.984 89.2343 99.1186 87.5667C96.2532 85.8992 93.1101 85.0654 89.6897 85.0654H70.5547C70.3081 85.0654 70.1848 85.1889 70.1848 85.436L70 150.61C70 150.919 70.1233 151.074 70.3699 151.074ZM185.585 152C182.226 152 179.13 151.135 176.295 149.406C173.491 147.677 171.241 145.376 169.547 142.504C167.883 139.601 167.051 136.421 167.051 132.962V128.608C167.051 128.268 167.205 128.098 167.513 128.098H178.144C178.39 128.098 178.513 128.268 178.513 128.608V132.962C178.513 135.031 179.207 136.822 180.593 138.335C181.98 139.817 183.644 140.559 185.585 140.559C187.557 140.559 189.236 139.802 190.623 138.289C192.01 136.745 192.703 134.969 192.703 132.962C192.703 130.646 191.193 128.623 188.173 126.894C187.68 126.585 187.033 126.214 186.232 125.782C185.462 125.319 184.537 124.794 183.459 124.207C182.38 123.62 181.333 123.049 180.316 122.493C179.299 121.906 178.313 121.351 177.358 120.826C173.907 118.787 171.334 116.24 169.639 113.183C167.975 110.094 167.143 106.636 167.143 102.807C167.143 99.2861 168.006 96.1054 169.731 93.2643C171.457 90.4541 173.706 88.2307 176.479 86.594C179.284 84.9264 182.319 84.0926 185.585 84.0926C188.944 84.0926 192.025 84.9264 194.829 86.594C197.633 88.2925 199.867 90.5468 201.531 93.3569C203.226 96.1671 204.073 99.317 204.073 102.807V110.589C204.073 110.836 203.95 110.959 203.703 110.959H193.073C192.826 110.959 192.703 110.836 192.703 110.589L192.61 102.807C192.61 100.583 191.917 98.7766 190.531 97.3869C189.144 95.9973 187.495 95.3025 185.585 95.3025C183.644 95.3025 181.98 96.0436 180.593 97.5259C179.207 99.0082 178.513 100.768 178.513 102.807C178.513 104.876 178.945 106.605 179.807 107.995C180.701 109.384 182.319 110.712 184.661 111.978C184.907 112.102 185.477 112.411 186.371 112.905C187.264 113.399 188.25 113.955 189.329 114.572C190.438 115.159 191.439 115.699 192.333 116.193C193.227 116.657 193.766 116.935 193.951 117.027C197.094 118.787 199.574 120.949 201.392 123.512C203.241 126.075 204.166 129.225 204.166 132.962C204.166 136.575 203.333 139.817 201.67 142.689C199.975 145.561 197.726 147.831 194.921 149.499C192.117 151.166 189.005 152 185.585 152ZM224.066 85.436L212.326 150.61C212.326 150.919 212.449 151.074 212.696 151.074H223.234C223.511 151.074 223.665 150.919 223.696 150.61L224.713 143.662H237.608L238.625 150.61C238.656 150.919 238.825 151.074 239.134 151.074H249.625C249.903 151.074 250.026 150.919 249.995 150.61L238.718 85.436C238.656 85.1889 238.502 85.0654 238.255 85.0654H224.528C224.281 85.0654 224.127 85.1889 224.066 85.436Z" fill="#FF2C2C"/>
</svg>
